# Blender v2.77 (sub 0) OBJ File: 'Secret Hitler.blend'
# www.blender.org
o chancellor.name_tag.collider.003_Plane.011
v -5.000000 2.060939 0.250000
v -5.000000 2.060939 -0.250000
v -5.000000 1.993952 0.000000
v -5.000000 2.137096 0.196424
v -5.000000 2.193685 0.135299
v -5.000000 2.228533 0.068975
v -5.000000 2.240299 -0.000000
v -5.000000 2.228533 -0.068975
v -5.000000 2.193685 -0.135299
v -5.000000 2.137096 -0.196424
v 5.000000 2.060939 -0.250000
v 5.000000 2.060939 0.250000
v 5.000000 1.993952 0.000000
v 5.000000 2.137096 -0.196424
v 5.000000 2.193685 -0.135299
v 5.000000 2.228533 -0.068975
v 5.000000 2.240299 0.000000
v 5.000000 2.228533 0.068975
v 5.000000 2.193685 0.135299
v 5.000000 2.137096 0.196424
vn -1.000000 0.000000 0.000000
vn 1.000000 0.000000 0.000000
vn 0.000000 0.575400 -0.817900
vn 0.000000 0.733800 -0.679400
vn 0.000000 0.885200 -0.465100
vn 0.000000 0.985800 -0.168200
vn -0.000000 0.985800 0.168200
vn -0.000000 0.885200 0.465100
vn -0.000000 0.733800 0.679400
vn -0.000000 0.575400 0.817900
s off
f 1//1 4//1 3//1
f 4//1 5//1 3//1
f 5//1 6//1 3//1
f 6//1 7//1 3//1
f 7//1 8//1 3//1
f 8//1 9//1 3//1
f 9//1 10//1 3//1
f 10//1 2//1 3//1
f 11//2 14//2 13//2
f 14//2 15//2 13//2
f 15//2 16//2 13//2
f 16//2 17//2 13//2
f 17//2 18//2 13//2
f 18//2 19//2 13//2
f 19//2 20//2 13//2
f 20//2 12//2 13//2
f 2//3 14//3 11//3
f 10//4 15//4 14//4
f 9//5 16//5 15//5
f 8//6 17//6 16//6
f 7//7 18//7 17//7
f 6//8 19//8 18//8
f 5//9 20//9 19//9
f 4//10 12//10 20//10
f 2//3 10//3 14//3
f 10//4 9//4 15//4
f 9//5 8//5 16//5
f 8//6 7//6 17//6
f 7//7 6//7 18//7
f 6//8 5//8 19//8
f 5//9 4//9 20//9
f 4//10 1//10 12//10
o chancellor.name_tag.collider.002_Plane.010
v 5.000000 -0.970150 -1.999999
v -5.000000 -0.970150 -2.000000
v -5.000000 1.893952 0.000000
v 5.000000 1.893952 0.000000
v 5.000000 -1.120150 -1.740192
v -5.000000 -1.120150 -1.740193
v -5.000000 2.060939 -0.250000
v -5.000000 1.993952 0.000000
v 5.000000 2.060939 -0.250000
v 5.000000 1.993952 0.000000
vn 0.000000 0.500000 -0.866000
vn -1.000000 0.000000 0.000000
vn 0.000000 -0.500000 0.866000
vn 1.000000 0.000000 0.000000
vn 0.000000 -0.866000 -0.500000
s off
f 22//11 29//11 21//11
f 22//12 26//12 23//12
f 23//13 25//13 24//13
f 29//14 24//14 21//14
f 21//15 26//15 22//15
f 22//11 27//11 29//11
f 23//12 28//12 27//12
f 27//12 22//12 23//12
f 23//13 26//13 25//13
f 25//14 21//14 24//14
f 29//14 30//14 24//14
f 21//15 25//15 26//15
o chancellor.name_tag.collider.001_Plane.007
v -5.000000 -0.970150 2.000000
v 5.000000 -0.970150 2.000000
v -5.000000 -1.120149 1.740192
v 5.000000 -1.120149 1.740192
v -5.000000 1.893952 0.000000
v 5.000000 1.893952 0.000000
v -5.000000 2.060939 0.250000
v -5.000000 1.993952 0.000000
v 5.000000 2.060939 0.250000
v 5.000000 1.993952 0.000000
vn 0.000000 -0.500000 -0.866000
vn 1.000000 0.000000 0.000000
vn 0.000000 -0.866000 0.500000
vn -1.000000 -0.000000 0.000000
vn 0.000000 0.500000 0.866000
s off
f 36//16 33//16 35//16
f 32//17 34//17 36//17
f 31//18 34//18 32//18
f 37//19 35//19 31//19
f 32//20 37//20 31//20
f 36//16 34//16 33//16
f 36//17 40//17 39//17
f 39//17 32//17 36//17
f 31//18 33//18 34//18
f 33//19 31//19 35//19
f 37//19 38//19 35//19
f 32//20 39//20 37//20
