# Blender v2.72 (sub 0) OBJ File: 'Secret Hitler.blend'
# www.blender.org
o president.name.tag.001_Plane.009
v -5.000000 -0.970150 2.000000
v 5.000000 -0.970150 2.000000
v 5.000000 -0.970150 -1.999999
v -5.000000 -0.970150 -2.000000
v -5.000000 -1.120149 1.740192
v 5.000000 -1.120149 1.740192
v 5.000000 -1.120150 -1.740192
v -5.000000 -1.120150 -1.740193
v -5.000000 2.060940 0.250000
v -5.000000 2.060940 -0.250000
v -5.000000 2.137096 0.196424
v -5.000000 2.193685 0.135299
v -5.000000 2.228533 0.068975
v -5.000000 2.240299 -0.000000
v -5.000000 2.228533 -0.068975
v -5.000000 2.193685 -0.135299
v -5.000000 2.137096 -0.196424
v 5.000000 2.060940 -0.250000
v 5.000000 2.060940 0.250000
v 5.000000 2.137096 -0.196424
v 5.000000 2.193685 -0.135299
v 5.000000 2.228533 -0.068975
v 5.000000 2.240299 0.000000
v 5.000000 2.228533 0.068975
v 5.000000 2.193685 0.135299
v 5.000000 2.137096 0.196424
v -5.000000 -0.970150 2.000000
v -5.000000 -0.970150 2.000000
v 5.000000 -0.970150 2.000000
v 5.000000 -0.970150 2.000000
v 5.000000 -0.970150 -1.999999
v 5.000000 -0.970150 -1.999999
v -5.000000 -0.970150 -2.000000
v -5.000000 -0.970150 -2.000000
v 5.000000 -1.120149 1.740192
v 5.000000 -1.120150 -1.740192
v -5.000000 -1.120149 1.740192
v -5.000000 -1.120150 -1.740193
v 5.000000 2.137096 -0.196424
v 5.000000 2.060940 -0.250000
v -5.000000 2.060940 -0.250000
v -5.000000 2.137096 -0.196424
v 5.000000 2.193685 -0.135299
v -5.000000 2.193685 -0.135299
v 5.000000 2.228533 -0.068975
v -5.000000 2.228533 -0.068975
v 5.000000 2.240299 0.000000
v -5.000000 2.240299 -0.000000
v 5.000000 2.228533 0.068975
v -5.000000 2.228533 0.068975
v 5.000000 2.193685 0.135299
v -5.000000 2.193685 0.135299
v 5.000000 2.137096 0.196424
v -5.000000 2.137096 0.196424
v 5.000000 2.060940 0.250000
v -5.000000 2.060940 0.250000
vt 0.275762 0.999965
vt 0.275762 0.698174
vt 1.000000 0.698174
vt 0.126031 0.013308
vt 0.144848 0.000000
vt 0.271589 0.268911
vt 0.275762 0.342743
vt 0.275762 0.317035
vt 1.000000 0.317035
vt 1.000000 -0.000035
vt 1.000000 0.018785
vt 0.275762 0.018785
vt 0.275762 0.588038
vt 0.275762 0.614653
vt 0.022278 0.614653
vt 0.275762 0.690003
vt 1.000000 0.690003
vt 0.275762 0.682628
vt 1.000000 0.682628
vt 0.275762 0.676331
vt 1.000000 0.676331
vt 0.275762 0.671354
vt 1.000000 0.671354
vt 0.275762 0.666377
vt 1.000000 0.666377
vt 0.275762 0.660080
vt 1.000000 0.660080
vt 0.275762 0.652705
vt 1.000000 0.652705
vt 0.275762 0.644535
vt 1.000000 0.644534
vt 1.000000 0.342743
vt 1.000000 0.999965
vt 0.253483 0.307326
vt 0.000000 0.307326
vt 0.000000 0.280711
vt 0.265963 0.304402
vt 0.275762 0.283612
vt 0.270550 0.300852
vt 0.273786 0.296075
vt 0.275546 0.290253
vt 0.260200 0.306588
vt 0.274426 0.276405
vt 0.275762 -0.000035
vt 0.004172 0.576237
vt 0.130914 0.307326
vt 0.149730 0.320634
vt 0.015562 0.613915
vt 0.009799 0.611729
vt 0.000000 0.590938
vt 0.000216 0.597580
vt 0.001976 0.603401
vt 0.005211 0.608179
vt 0.001336 0.583732
vn 0.000000 0.500000 -0.866000
vn 0.000000 0.538200 -0.842800
vn -1.000000 0.000000 0.000000
vn 0.000000 -0.866000 0.500000
vn -0.000000 -0.965900 0.258800
vn 0.000000 -0.866000 -0.500000
vn 0.000000 -0.965900 -0.258800
vn 1.000000 -0.000000 0.000000
vn 0.000000 0.658200 -0.752800
vn 0.000000 0.658300 -0.752800
vn 0.000000 0.816600 -0.577200
vn 0.000000 0.947200 -0.320600
vn -0.000000 1.000000 0.000000
vn -0.000000 0.947200 0.320600
vn -0.000000 0.816600 0.577200
vn -0.000000 0.658300 0.752800
vn -0.000000 0.658200 0.752800
vn 0.000000 0.538200 0.842800
vn 0.000000 0.500000 0.866000
s 1
f 4/1/1 10/2/2 40/3/2
s 2
f 37/4/3 27/5/3 9/6/3
s 3
f 1/7/4 5/8/5 6/9/5
f 31/10/6 7/11/7 8/12/7
f 5/8/5 8/12/7 7/11/7
s 4
f 36/13/8 32/14/8 18/15/8
s 1
f 10/2/2 42/16/9 39/17/10
f 42/16/9 44/18/11 43/19/11
f 44/18/11 46/20/12 45/21/12
f 46/20/12 48/22/13 47/23/13
f 48/22/13 50/24/14 49/25/14
f 50/24/14 52/26/15 51/27/15
f 52/26/15 54/28/16 53/29/17
f 54/28/16 56/30/18 55/31/18
f 30/32/19 55/31/18 56/30/18
f 3/33/1 4/1/1 40/3/2
s 2
f 41/34/3 33/35/3 38/36/3
f 9/6/3 41/34/3 38/36/3
f 16/37/3 12/38/3 15/39/3
f 14/40/3 15/39/3 13/41/3
f 12/38/3 17/42/3 11/43/3
s 3
f 2/32/4 1/7/4 6/9/5
s 2
f 37/4/3 9/6/3 38/36/3
f 17/42/3 41/34/3 11/43/3
f 41/34/3 9/6/3 11/43/3
s 3
f 34/44/6 31/10/6 8/12/7
s 2
f 15/39/3 12/38/3 13/41/3
f 12/38/3 16/37/3 17/42/3
s 3
f 6/9/5 5/8/5 7/11/7
s 4
f 19/45/8 29/46/8 35/47/8
f 20/48/8 21/49/8 25/50/8
f 25/50/8 21/49/8 24/51/8
f 23/52/8 24/51/8 22/53/8
s 1
f 39/17/10 42/16/9 43/19/11
f 40/3/2 10/2/2 39/17/10
s 4
f 19/45/8 35/47/8 36/13/8
f 26/54/8 19/45/8 20/48/8
f 19/45/8 18/15/8 20/48/8
f 19/45/8 36/13/8 18/15/8
f 24/51/8 21/49/8 22/53/8
f 26/54/8 20/48/8 25/50/8
s 1
f 43/19/11 44/18/11 45/21/12
f 45/21/12 46/20/12 47/23/13
f 47/23/13 48/22/13 49/25/14
f 49/25/14 50/24/14 51/27/15
f 51/27/15 52/26/15 53/29/17
f 53/29/17 54/28/16 55/31/18
f 28/7/19 30/32/19 56/30/18
