# Blender v2.72 (sub 0) OBJ File: 'Secret Hitler.blend'
# www.blender.org
o Cube.011_Cube.022
v -5.000000 -0.100000 1.900000
v -5.000000 -0.100000 -1.900000
v 5.000000 -0.100000 -1.900000
v 5.000000 -0.100000 1.900000
v -5.000000 0.100000 1.900000
v -5.000000 0.100000 -1.900000
v 5.000000 0.100000 -1.900000
v 5.000000 0.100000 1.900000
vt 0.027244 0.504188
vt 0.006977 0.504188
vt 0.006977 0.997090
vt 0.996684 0.531709
vt 0.996684 0.506321
vt 0.004950 0.506321
vt 0.981602 0.995483
vt 0.961334 0.995483
vt 0.961334 0.502581
vt 0.004950 0.531709
vt 1.000000 0.500000
vt 0.000000 0.500000
vt 0.000000 -0.000000
vt 1.000000 1.000000
vt 0.000000 1.000000
vt 0.027244 0.997090
vt 0.981602 0.502581
vt 1.000000 0.000000
vn -1.000000 0.000000 0.000000
vn 0.000000 0.000000 -1.000000
vn 1.000000 0.000000 0.000000
vn 0.000000 0.000000 1.000000
vn 0.000000 -1.000000 0.000000
vn 0.000000 1.000000 0.000000
s off
f 6/1/1 2/2/1 1/3/1
f 7/4/2 3/5/2 2/6/2
f 8/7/3 4/8/3 3/9/3
f 5/5/4 1/4/4 4/10/4
f 2/11/5 3/12/5 4/13/5
f 7/14/6 6/15/6 5/12/6
f 5/16/1 6/1/1 1/3/1
f 6/10/2 7/4/2 2/6/2
f 7/17/3 8/7/3 3/9/3
f 8/6/4 5/5/4 4/10/4
f 1/18/5 2/11/5 4/13/5
f 8/11/6 7/14/6 5/12/6
